<?xml version="1.0" encoding="UTF-8"?>
<svg xmlns="http://www.w3.org/2000/svg" version="1.1" viewBox="0 0 419.5 595.3">
  <defs>
    <style>
      .cls-1 {
        fill: #fff;
      }
    </style>
  </defs>
  <!-- Generator: Adobe Illustrator 28.7.0, SVG Export Plug-In . SVG Version: 1.2.0 Build 136)  -->
  <g>
    <g id="Layer_1">
      <g id="Layer_1-2" data-name="Layer_1">
        <g>
          <path d="M-216.8,310.4v-180.4c0-7.5,6.1-13.6,13.6-13.6h737.4v180.4c0,7.5-6.1,13.6-13.6,13.6H-216.8ZM54.3,223.4c1.1-.6,2.1-1.1,3-1.6,8.7-4.9,13-13.5,11.2-22.5-1.9-9.5-9.4-16.8-19.3-17.4-10.5-.6-21-.2-31.5-.3-1.6,0-2.4.9-2.4,2.5v63.7c0,3.2.3,3.5,3.4,3.5,3.1,0,6.2-.1,9.2,0,2.4.1,3.2-.8,3.2-3.2,0-7.1,0-14.2,0-21.2v-2.8c1.3,0,2.2.1,3.1,0,2.7-.5,4.1.7,5.3,3.2,3.5,7.4,7.3,14.6,10.9,21.9.8,1.5,1.7,2.2,3.5,2.1,3.8-.1,7.5,0,11.2,0,2.9,0,3.5-1.1,2.2-3.8-.9-1.7-1.8-3.4-2.7-5.1-3.4-6.4-6.8-12.7-10.3-19.2h0ZM203.7,196.4h2.8c7.8,0,15.7,0,23.5,0,2.1,0,3.1-.8,3.1-2.9,0-3,0-6,0-9,0-2.1-1-2.9-3.1-2.9-13.1,0-26.2,0-39.2,0-1.9,0-2.9.7-2.9,2.8,0,21.4,0,42.8,0,64.2,0,2.8,1.5,3.2,5.6,2.5,11.4-1.9,23-2,34.4,0s5.2,0,5.2-2.5c0-2.8,0-5.7,0-8.5,0-3-.5-3.5-3.5-3.5-7.7,0-15.3,0-23,0-1,0-1.9,0-2.8-.1v-13.1c7.3,0,14.4,0,21.4,0,2.2,0,3-.9,3-3,0-2.9,0-5.8,0-8.8,0-2.3-1-3.1-3.2-3.1-3.2,0-6.3,0-9.5,0h-11.8v-12.2h0ZM-47.2,196.4h3c7.8,0,15.7,0,23.5,0,2.1,0,3.1-.7,3-2.9,0-2.9-.1-5.8,0-8.8.1-2.5-1-3.2-3.3-3.2-12.8,0-25.7,0-38.5,0-3,0-3.3.4-3.3,3.3,0,7.4,0,14.8,0,22.2,0,13.7,0,27.3,0,41,0,1.9.1,3.3,2.6,3.2,13.3,0,26.7,0,40,0,1.8,0,2.5-.8,2.5-2.6,0-2.9,0-5.8,0-8.8,0-3-.4-3.4-3.5-3.5-7.8,0-15.5,0-23.2,0-.9,0-1.8,0-2.6-.1v-13.1h2.9c6.2,0,12.5,0,18.8,0,2,0,2.9-.7,2.9-2.8,0-2.9,0-5.8,0-8.8,0-2.9-.3-3.2-3.4-3.2-6.2,0-12.3,0-18.5,0-.9,0-1.7-.1-2.7-.1v-12.1h0ZM408.3,219.3c2-1.6,3.8-3.3,5.8-4.6,2.1-1.4,3-.7,3,1.8s-.1,1.3-.2,2c-1.1,5.8-2.2,11.6-3.3,17.4-1,5.1-2,10.2-3,16,3.5,0,6.5,0,9.5,0,2.1,0,2.9-.9,3.2-2.9,1.4-8.8,3.6-17.4,7.9-25.4,1.2-2.2,2.5-4.3,4-6.3.6-.8,2.3-1.5,2.9-1.2,1,.5,2,1.9,2.1,2.9.2,1.9-.3,4-.6,5.9-1.7,8.7-3.5,17.4-5.4,26.9,3.3,0,6.2,0,9.2,0,2.5,0,3.7-.8,4-3.4,1.3-9.2,4-18,8.4-26.2,1-1.8,2.1-3.6,3.5-5.1.6-.7,2.2-1.2,3-.9.8.3,1.7,1.6,1.8,2.6.2,1.6-.2,3.3-.5,4.9-1.2,7.3-2.8,14.5-3.7,21.9-.6,5,2.9,7.6,7.8,6.2,5.9-1.6,10.4-5.5,14.5-9.9,1.9-2,1.7-2.7-.4-4.4-2.9,2.1-5.8,4.2-8.6,6.3.2-2-.2-4.1,0-6,1-6.2,2.5-12.4,3.3-18.7.4-3,.2-6.2-.7-9.1-1.8-5.9-7.7-7.5-12.6-3.8-1.7,1.2-3.2,2.7-4.5,4.3-2,2.3-3.7,4.7-5.4,6.9-.5-2.6-.6-5.4-1.6-7.9-1.9-5.2-7.6-6.8-12.1-3.5-1.8,1.3-3.4,3-4.8,4.7-1.9,2.3-3.5,4.8-5.4,7.4.3-2.6.7-4.9.9-7.2.3-4.8-2.8-7.5-7.4-6.3-6.5,1.6-11.3,5.8-15.6,10.8-1.4,1.7-.1,2.7,1,3.8h0ZM-124.3,219.5c-.8-1.6-1.2-2.6-1.7-3.6-4.8-10.6-9.6-21.2-14.4-31.9-.8-1.8-1.8-2.6-3.8-2.5-3.6.1-7.2,0-10.8,0-3.1,0-3.7,1-2.4,3.9,10,21.6,20,43.2,30.1,64.8.4.9,1.6,1.7,2.7,2.1,1.6.5,2.3-.8,2.9-2.1,10.1-21.6,20.2-43.3,30.3-64.9,1.2-2.6.6-3.6-2.2-3.6-3.7,0-7.3,0-11,0-2,0-3,.8-3.8,2.5-2.6,6-5.3,11.8-8,17.8-2.6,5.7-5.1,11.3-8,17.6h0ZM126.5,219.4c-.7-1.4-1-2.1-1.4-2.8-4.9-10.8-9.8-21.5-14.6-32.3-.9-2.1-2.1-2.9-4.4-2.8-3.5.2-7,0-10.5,0-2.8,0-3.5,1-2.3,3.6,10.1,21.7,20.1,43.5,30.3,65.2.4.9,1.7,1.8,2.7,1.9.8,0,2.1-.9,2.5-1.7,10.3-21.8,20.5-43.7,30.6-65.5,1.1-2.2.4-3.3-2.1-3.3-3.9,0-7.8,0-11.7,0-1.6,0-2.4.7-3,2.1-2.1,4.7-4.2,9.4-6.4,14.1-3.2,7-6.4,14.1-9.8,21.7h0ZM321.1,212.8c-.2,1.3-.2,2.1-.4,2.9-1.7,8.6-3.4,17.3-5.2,25.9-1.4,6.7-3,13.3-4.7,19.9-.5,1.9-1.7,3.8-3.1,5.3-2.4,2.5-5.1,1.9-6.8-1.1-.5-.8-.7-1.7-1.2-2.5-1.7-2.9-5.7-3.4-7.4-.5-3.1,5.4-3.2,9.1,3.3,10.9.4.1.8.2,1.2.2,5.2.8,10.1-.4,14.6-3,8.4-4.8,12.7-12.7,14.8-21.6,2.5-10.9,4.5-22,6.6-33,.5-2.4,1.3-3.6,4-3.4s5.5.1,8.2,0c.8,0,1.9-.6,2.2-1.3,1.9-3.6,1-4.9-3-4.9h-9.5c1.2-6.3,2.7-12,5.7-17.2.7-1.3,1.7-2.5,2.8-3.5,2.2-1.9,4.1-1.5,5.5,1,.7,1.1,1,2.5,1.7,3.6,1.4,2.5,3.8,3.1,6.1,1.7,2.1-1.2,4.4-6.5,3.2-9.1-.7-1.6-3-3.1-4.9-3.5-7.1-1.7-13.7-.1-19.6,4.1-6.9,5-10.6,12-12.4,20.2-.4,1.8-.9,2.7-3,2.7-3.2,0-5.8,3.1-5.6,6.3h6.7,0ZM403.5,237.5c-1.5,1.3-2.9,2.7-4.5,3.8-1,.7-2.3.9-3.5,1.3-.2-1.3-.4-2.5-.6-3.8,0-.2,0-.3,0-.5,2.8-14.5,5.7-29,8.5-43.6.8-4.2,1.8-8.5,2.5-12.7.5-3.2-.7-3.3-4.5-2s-7.6,2.2-11.5,2.7-3.3,1.4-3,3.4c5.6.7,5.8,1,4.8,6.3-2,10.5-4.1,21-6.1,31.6-1.3,7-2.8,14-3.7,21.1-.7,5.6,2.8,8.3,8.2,6.7,5.7-1.7,10-5.4,14-9.6,1.7-1.8,1.7-3.3-.5-4.7h0ZM378.9,237.5c-1.8,1.5-3.5,3-5.2,4.3-.8.5-1.8.7-2.7,1-.2-.9-.8-1.9-.7-2.8.3-2.5.8-5.1,1.2-7.6,1.2-6.6,2.6-13.2,3.6-19.9,1-6.5-2.9-9.5-9.1-7.2-5.3,2-9.5,5.4-13.2,9.5-1.9,2-1.7,2.7.7,4.4,1.7-1.4,3.3-2.9,5-4.1.8-.6,1.9-.6,2.9-1,.2.9.6,1.9.6,2.8s-.2,2.3-.5,3.5c-1.5,8-3.1,16-4.4,24-1,6.2,2.8,9.3,8.7,7.2,5.5-1.9,9.8-5.6,13.7-9.8,1.7-1.8,1.1-3.2-.7-4.4h0ZM269.7,252.4c6.5,0,11.4-6.4,8.7-13.2s-2.3-3.6-4.2-4.6c-7-3.6-14.1,1.6-14.1,8.4,0,5.3,4.1,9.4,9.5,9.4h0ZM364.8,188.5c0,3.9,2.5,6.7,6.1,6.7,4.2,0,8.1-4.1,8.2-8.7,0-3.8-2.6-6.6-6.2-6.6-4.4,0-8.1,4-8.1,8.7Z"/>
          <path class="cls-1" d="M54.3,223.4c3.5,6.5,6.9,12.8,10.3,19.2.9,1.7,1.8,3.4,2.7,5.1,1.4,2.6.7,3.8-2.2,3.8-3.8,0-7.5,0-11.2,0-1.8,0-2.7-.6-3.5-2.1-3.6-7.3-7.4-14.5-10.9-21.9-1.2-2.5-2.5-3.7-5.3-3.2-.9.1-1.8,0-3.1,0v2.8c0,7.1,0,14.2,0,21.2,0,2.4-.8,3.3-3.2,3.2-3.1-.1-6.2,0-9.2,0-3.1,0-3.4-.3-3.4-3.5v-63.7c0-1.6.8-2.5,2.4-2.5,10.5,0,21-.3,31.5.3,10,.6,17.5,7.8,19.3,17.4,1.8,9-2.6,17.7-11.2,22.5-.9.5-1.9,1-3,1.6ZM31.2,211.4c5.2,0,10.2.2,15.2,0,3.8-.2,6.9-4,6.8-7.9,0-3.9-3.2-7.2-7.3-7.4-2.9-.1-5.8,0-8.7,0h-6v15.4h0Z"/>
          <path class="cls-1" d="M203.7,196.4v12.2h11.8c3.2,0,6.3,0,9.5,0,2.2,0,3.2.8,3.2,3.1,0,2.9,0,5.8,0,8.8,0,2.1-.8,3-3,3-7.1,0-14.1,0-21.4,0v13.1c.9,0,1.8.1,2.8.1,7.7,0,15.3,0,23,0,3,0,3.5.5,3.5,3.5,0,2.8,0,5.7,0,8.5,0,2-.8,2.8-2.9,2.8-13.2,0-26.3,0-39.5,0-2,0-2.9-.7-2.9-2.8,0-21.4,0-42.8,0-64.2,0-2.1.9-2.8,2.9-2.8,13.1,0,26.2,0,39.3,0,2.1,0,3.1.8,3.1,2.9,0,3,0,6,0,9,0,2.1-.9,2.9-3.1,2.9-7.8,0-15.7,0-23.5,0h-2.8Z"/>
          <path class="cls-1" d="M-47.2,196.4v12.1c.9,0,1.8.1,2.7.1,6.2,0,12.3,0,18.5,0,3,0,3.3.3,3.4,3.2,0,2.9,0,5.8,0,8.8,0,2.1-.9,2.8-2.9,2.8-6.2,0-12.5,0-18.8,0h-2.9v13.1c.9,0,1.8.1,2.6.1,7.8,0,15.5,0,23.2,0,3.1,0,3.5.4,3.5,3.5,0,2.9,0,5.8,0,8.8,0,1.8-.7,2.6-2.5,2.6-13.3,0-26.7,0-40,0-2.5,0-2.6-1.4-2.6-3.2,0-13.7,0-27.3,0-41s0-14.8,0-22.2c0-2.9.4-3.3,3.3-3.3,12.8,0,25.7,0,38.5,0,2.3,0,3.4.7,3.3,3.2-.2,2.9-.1,5.8,0,8.8,0,2.2-.9,2.9-3,2.9-7.8,0-15.7,0-23.5,0h-3,0Z"/>
          <path class="cls-1" d="M408.3,219.3c-1.1-1.1-2.5-2.1-1-3.8,4.2-4.9,9.1-9.1,15.6-10.8,4.6-1.2,7.7,1.5,7.4,6.3-.1,2.3-.5,4.6-.9,7.2,1.9-2.6,3.5-5.1,5.4-7.4,1.4-1.7,3-3.4,4.8-4.7,4.5-3.3,10.1-1.7,12.1,3.5.9,2.5,1.1,5.3,1.6,7.9,1.7-2.1,3.4-4.6,5.4-6.9,1.4-1.6,2.9-3,4.5-4.3,4.9-3.7,10.8-2,12.6,3.8.9,2.8,1.1,6.1.7,9.1-.8,6.3-2.2,12.4-3.3,18.7-.3,1.5,0,3.2,0,4.8.3.2.6.4.9.6,2.5-1.9,5.1-3.7,7.7-5.6,2.2,1.8,2.3,2.4.4,4.4-4.1,4.4-8.6,8.2-14.5,9.9-4.9,1.4-8.4-1.2-7.8-6.2.9-7.3,2.5-14.6,3.7-21.9.3-1.6.7-3.3.5-4.9,0-1-1-2.3-1.8-2.6-.8-.3-2.4.2-3,.9-1.4,1.5-2.5,3.3-3.5,5.1-4.5,8.2-7.1,17-8.4,26.2-.4,2.7-1.5,3.5-4,3.4-2.9-.1-5.9,0-9.2,0,1.9-9.5,3.7-18.2,5.4-26.9.4-2,.8-4,.6-5.9,0-1.1-1.1-2.5-2.1-2.9-.6-.3-2.3.4-2.9,1.2-1.5,2-2.9,4.1-4,6.3-4.2,8-6.5,16.6-7.9,25.4-.3,2-1.1,2.9-3.2,2.9-3,0-6.1,0-9.5,0,1.1-5.8,2.1-10.9,3-16,1.1-5.8,2.2-11.6,3.3-17.4.1-.6.2-1.3.2-2,0-2.5-1-3.1-3-1.8-2,1.3-3.8,3-5.8,4.6h0Z"/>
          <path class="cls-1" d="M-124.3,219.5c2.9-6.3,5.4-12,8-17.6,2.7-5.9,5.4-11.8,8-17.8.8-1.8,1.8-2.6,3.8-2.5,3.7.1,7.3,0,11,0,2.8,0,3.4,1.1,2.2,3.6-10.1,21.6-20.2,43.3-30.3,64.9-.6,1.3-1.2,2.6-2.9,2.1-1-.3-2.2-1.1-2.7-2.1-10.1-21.5-20.1-43.1-30.1-64.8-1.3-2.9-.7-3.9,2.4-3.9,3.6,0,7.2,0,10.8,0,2,0,3,.7,3.8,2.5,4.7,10.6,9.6,21.2,14.4,31.9.4,1,.9,1.9,1.7,3.6h0Z"/>
          <path class="cls-1" d="M126.5,219.4c3.4-7.6,6.6-14.7,9.8-21.7,2.1-4.7,4.3-9.4,6.4-14.1.6-1.4,1.5-2.1,3-2.1,3.9,0,7.8,0,11.7,0,2.5,0,3.2,1.1,2.1,3.3-10.2,21.9-20.4,43.7-30.6,65.5-.4.8-1.7,1.8-2.5,1.7-.9,0-2.3-1-2.7-1.9-10.2-21.7-20.2-43.4-30.3-65.2-1.2-2.5-.5-3.5,2.3-3.6,3.5,0,7,.1,10.5,0,2.2-.1,3.5.7,4.4,2.8,4.8,10.8,9.7,21.5,14.6,32.3.3.7.7,1.5,1.4,2.8h0Z"/>
          <path class="cls-1" d="M321.1,212.8h-6.7c-.2-3.1,2.5-6.2,5.6-6.3,2.1,0,2.6-.9,3-2.7,1.7-8.2,5.4-15.2,12.4-20.2,5.9-4.2,12.5-5.8,19.6-4.1,1.9.4,4.2,1.9,4.9,3.5,1.2,2.7-1.1,7.9-3.2,9.1-2.4,1.4-4.8.8-6.1-1.7-.6-1.2-1-2.5-1.7-3.6-1.4-2.5-3.4-2.9-5.5-1-1.1,1-2.1,2.2-2.8,3.5-3,5.2-4.5,10.9-5.7,17.2h9.5c4,0,4.9,1.3,3,4.9-.3.7-1.5,1.3-2.2,1.3-2.7.2-5.5.3-8.2,0-2.7-.3-3.5.9-4,3.4-2.1,11-4,22.1-6.6,33-2.1,9-6.3,16.8-14.8,21.6-4.5,2.6-9.4,3.9-14.6,3-.4,0-.8-.1-1.2-.2-6.5-1.8-6.4-5.5-3.3-10.9,1.7-2.9,5.7-2.4,7.4.5.5.8.7,1.7,1.2,2.5,1.7,3,4.4,3.5,6.8,1.1,1.4-1.5,2.6-3.4,3.1-5.3,1.8-6.6,3.3-13.2,4.7-19.9,1.9-8.6,3.5-17.3,5.2-25.9.2-.8.2-1.6.4-2.9h0Z"/>
          <path class="cls-1" d="M403.5,237.5c2.2,1.4,2.2,3,.5,4.7-4,4.2-8.4,7.9-14,9.6-5.4,1.6-8.9-1.1-8.2-6.7.9-7.1,2.4-14.1,3.7-21.1,2-10.5,4.1-21,6.1-31.6,1-5.4.8-5.6-4.8-6.3-.2-1.8,0-2.9,2.3-3.3,4.6-.9,9.2-2.1,13.8-3.3,2.6-.7,3.4-.2,3,2.5-.7,4.3-1.7,8.5-2.5,12.7-2.8,14.5-5.7,29-8.5,43.6,0,.2-.1.3,0,.5.2,1.3.4,2.5.6,3.8,1.2-.4,2.5-.6,3.5-1.3,1.6-1.1,3-2.5,4.5-3.8h0Z"/>
          <path class="cls-1" d="M378.9,237.5c1.8,1.2,2.4,2.6.7,4.4-3.9,4.2-8.2,7.9-13.7,9.8-5.9,2.1-9.7-1-8.7-7.2,1.3-8,2.9-16,4.4-24,.2-1.1.5-2.3.5-3.5,0-1-.4-1.9-.6-2.8-1,.3-2.1.4-2.9,1-1.8,1.2-3.4,2.7-5,4.1-2.3-1.8-2.5-2.4-.7-4.4,3.7-4.1,8-7.6,13.2-9.5,6.2-2.3,10,.8,9.1,7.2-1,6.7-2.4,13.2-3.6,19.9-.5,2.5-1,5.1-1.2,7.6,0,.9.4,1.8.7,2.8.9-.3,2-.4,2.7-1,1.8-1.3,3.5-2.8,5.2-4.3h0Z"/>
          <path class="cls-1" d="M269.7,252.4c-5.4,0-9.5-4.1-9.5-9.4,0-5.3,4.3-9.6,9.4-9.6,5.2,0,9.5,4.3,9.5,9.5,0,5.2-4.2,9.4-9.5,9.5h0Z"/>
          <path class="cls-1" d="M364.8,188.5c0-4.6,3.8-8.7,8.1-8.7s6.2,2.8,6.2,6.6c0,4.6-4,8.8-8.2,8.7-3.6,0-6.1-2.8-6.1-6.7Z"/>
          <path d="M31.2,211.4v-15.4h6c2.9,0,5.8-.1,8.7,0,4.1.2,7.3,3.4,7.3,7.4,0,3.9-3,7.8-6.8,7.9-5,.2-9.9,0-15.2,0h0Z"/>
        </g>
      </g>
    </g>
  </g>
</svg>